PathFileType	4	(X/Y/Z)	33_2_39_p0_0-209.trc
DataRate	CameraRate	NumFrames	NumMarkers	Units	OrigDataRate	OrigDataStartFrame	OrigNumFrames
59.0	59.0	4	27	m	59.0	0	210
Frame#	Time	RHip			RKnee			RAnkle			RBigToe			RSmallToe			RHeel			LHip			LKnee			LAnkle			LBigToe			LSmallToe			LHeel			Neck			Head			Nose			RShoulder			RElbow			RWrist			RThumb			RIndex			RPinky			LShoulder			LElbow			LWrist			LThumb			LIndex			LPinky			
		X1	Y1	Z1	X2	Y2	Z2	X3	Y3	Z3	X4	Y4	Z4	X5	Y5	Z5	X6	Y6	Z6	X7	Y7	Z7	X8	Y8	Z8	X9	Y9	Z9	X10	Y10	Z10	X11	Y11	Z11	X12	Y12	Z12	X13	Y13	Z13	X14	Y14	Z14	X15	Y15	Z15	X16	Y16	Z16	X17	Y17	Z17	X18	Y18	Z18	X19	Y19	Z19	X20	Y20	Z20	X21	Y21	Z21	X22	Y22	Z22	X23	Y23	Z23	X24	Y24	Z24	X25	Y25	Z25	X26	Y26	Z26	X27	Y27	Z27	
0	0.0	0.30690882639060135	0.33902126348390227	0.10460472315057863	0.3015561117760222	0.5988787972300306	0.5319777289259223	0.2756687476437232	0.7633551455276629	0.9150851798799684	0.2798685744050503	0.6707284472078289	1.0109078719267461	0.32999109707588153	0.6724575585048057	0.9977905997726491	0.21986493504580318	0.8484530659681827	0.9518681524181656	0.09579727048783045	0.35832097136920665	0.13024512159023802	0.08065338340256688	0.5781706080327939	0.5380320758385999	0.06766566667388245	0.7890811207325279	0.9189859393752006	0.10065177240750543	0.6364576528263686	1.0003051340940206	0.03910404892586922	0.6626397308013258	0.9967187162468579	0.07105329253869284	0.8580549780469553	0.9512422133474945	0.23288291211851614	0.05070890987779178	-0.3935648689735998	0.25305005171543915	-0.09103345348610825	-0.5974000611040347	0.24794382937318932	-0.10671103741257301	-0.4378494963074026	0.3923991927732894	0.13219371403897212	-0.32073547474048386	0.41133801173235784	0.250642104849584	-0.0771964158989159	0.276737957978925	0.20457133962414353	0.15971800448780032	0.18929655926291764	0.1984757209255664	0.2328000735619078	0.17467039458892944	0.25102007917656693	0.24683908429205875	0.1784802751149282	0.23732202049312598	0.24268530671411886	0.061538490059438046	0.09538325173657092	-0.32648110116391055	0.03874511329149357	0.1647945499865884	-0.05897746682310304	0.12296835109250008	0.15637485312073443	0.1553742181681166	0.2133029031642085	0.1735903738478915	0.1951898895130529	0.21594968098742323	0.1982699702442264	0.2440907063563728	0.18213899408917786	0.2160757518238842	0.2653630234054201
1	0.01694915254237288	0.3075844519188072	0.3419316402682143	0.10846601593008633	0.2994072141143841	0.5878573086429159	0.5367126919195601	0.2757427371008591	0.7632033258759531	0.9153238498371462	0.27729768534355	0.6552572671650613	1.0104749388398373	0.3348509724697648	0.6545153163311479	0.9972581059905524	0.22457755939138482	0.8527437198991089	0.9568687292308011	0.09248388602707698	0.35554266816453617	0.12795446897528423	0.08074002891239057	0.5780136686310451	0.5381851668186779	0.06387155613737118	0.7901054978618702	0.9237377895425043	0.10170445108547542	0.6336235290276846	0.9966114947512844	0.040255268848867105	0.6604227842221108	0.993403380553615	0.07200582828871702	0.8621484731736754	0.9598504756869195	0.23289481109508917	0.05043997789114354	-0.3935043722027494	0.2529512082145402	-0.09108157612190403	-0.5973516920165192	0.2478707334672214	-0.10660944911703356	-0.4379070617718068	0.39239848393128546	0.13236672206069114	-0.32080201956416937	0.40716833673036884	0.24884795484315883	-0.07654337594187526	0.2769982285615089	0.20318975280425555	0.15700759283774632	0.18897486526701948	0.2025854207329842	0.2395928022841029	0.17943377173269093	0.24016682916963564	0.251144095359652	0.18028838003482617	0.24843418278747556	0.23672340730219987	0.0596717515958126	0.0840128039176266	-0.3221082309833706	0.03879833357351936	0.16454067925168955	-0.05875599639063724	0.1230748739995769	0.15628189729160966	0.1554113181503367	0.21874497515192573	0.16066204224302857	0.19725752354479031	0.21233557739079995	0.20016593170011251	0.2514671278138038	0.1822307820290364	0.21606198815303598	0.2654823166906548
2	0.03389830508474576	0.3070129622253362	0.3395637773195106	0.10509134660714345	0.2994397073623174	0.587766658572105	0.5365767753094103	0.2757473065209613	0.7632556704303781	0.9153353699999579	0.2824165748715831	0.6378178005003164	1.0047481862914551	0.3348397605459416	0.6544306358232461	0.997324287952056	0.2245590462120766	0.8529139073320319	0.9570606301493394	0.09248949605177433	0.35681793691055025	0.13146185604875676	0.08071493540030986	0.5779032269277129	0.5381448133979746	0.06390418025317905	0.7899790555779318	0.9236824017003837	0.10177328890101997	0.633489084432499	0.9966149667586066	0.040249220960915225	0.6604743118966201	0.9934145861384911	0.07200371254075996	0.8622333373883699	0.9599085051764261	0.23287662284984934	0.05052673200481208	-0.3934998438905808	0.2508669097622142	-0.10074433563949169	-0.5924685545285747	0.24786930836760535	-0.10663074729421264	-0.4378701962201528	0.39238750950694146	0.1323215798225575	-0.32074650280619166	0.40416104345940557	0.23714524012298868	-0.07331190790314586	0.2769333862084133	0.20303384801000965	0.1570981690803537	0.18915316453075276	0.20240492875377616	0.23947259070490612	0.17955318283471386	0.23995478189557645	0.2512016427760796	0.1782723873222228	0.2359992063132229	0.238744946045164	0.06151146342673663	0.09537552900534375	-0.32633906253937744	0.03880437559071431	0.16457957432498757	-0.058731714005648625	0.1267378138819899	0.15798425761820234	0.15495624020602122	0.2187727476457906	0.16060101258443973	0.19738407664147078	0.21190691322491484	0.19709679169315028	0.2478298619521596	0.1822172476192653	0.2157576436929837	0.2656680614269591
3	0.05084745762711865	0.3065179753446441	0.34110929303152904	0.10839725236944568	0.2994226574253958	0.5878804328307775	0.536600204980995	0.2757592204249836	0.763158768412808	0.9154489649843406	0.2769071910542879	0.6547702932428923	1.0067009507438895	0.334811582122769	0.6542904169763325	0.9973989186444506	0.2315022493213059	0.8371080570524414	0.9592505545061943	0.09193300705119886	0.3583409994666117	0.13471382215983588	0.08070175344997153	0.5779952013860837	0.5381793744503143	0.0638631137894553	0.790079661903499	0.9237343094848688	0.10071489109357087	0.6351746715880066	1.000172260680822	0.03907605973445256	0.6625655830467532	0.996808331025261	0.07198396581801415	0.8626028160015413	0.9599069493684885	0.23292401482978123	0.05046518735645349	-0.3934867710137988	0.25291754172353276	-0.09103740880985756	-0.5974540454387605	0.24784524661911816	-0.10663668032348766	-0.4378732533429652	0.39238909851770565	0.13225276742885234	-0.3207223858059793	0.4041919278598306	0.23709593214817073	-0.07328462915496668	0.2769256895395433	0.202851456815901	0.1571125318373654	0.1890679387140155	0.20236440751935328	0.2395694601255353	0.1795458447509916	0.23997714458325403	0.25123671366872086	0.1784805911191035	0.23736663749957707	0.2424528256434137	0.05966144951868367	0.08404385071150003	-0.3220895810928862	0.03880057288513818	0.16454207694394718	-0.05871618957710086	0.12676461891794838	0.1578992722453734	0.15499257289732452	0.21870378090544645	0.16059479211707584	0.19742334660954533	0.2119153594202414	0.19715989570211537	0.24789119024442496	0.1821924366317814	0.21568205477809763	0.26566201132924677
